<svg width="182" height="395" viewBox="0 0 182 395" fill="none" xmlns="http://www.w3.org/2000/svg">
<path fill-rule="evenodd" clip-rule="evenodd" d="M180.459 235.862C175.252 262.684 151.475 275.097 103.839 272.575C68.1649 270.686 40.8519 278.459 21.914 264.011C11.2682 255.889 -1.98798 239.148 0.249662 213.624C1.97786 193.911 25.087 176.492 44.5023 160.666C54.7734 152.293 66.9308 144.922 73.5984 133.014C77.0489 126.851 82.7748 116.526 85.7129 104.175C91.6111 79.3811 92.8304 87.2393 96.184 99.2945C99.0529 109.607 104.476 122.81 104.686 123.293C112.748 141.826 116.153 139.502 128.522 153.8C143.126 170.681 166.538 180.594 176.613 200.217C181.124 209.003 182.374 225.997 180.459 235.862Z" fill="#FFD42A"/>
<path opacity="0.936073" fill-rule="evenodd" clip-rule="evenodd" d="M90.0188 0.610606C89.9471 26.203 90.062 61.6674 90.0188 88.7716C90.0188 89.5859 92.7338 89.5858 92.7301 88.7716C92.6136 63.1792 92.2129 23.971 92.7301 0.610606C92.748 -0.203455 90.021 -0.203616 90.0188 0.610606Z" fill="#FFD42A"/>
<path opacity="0.936073" fill-rule="evenodd" clip-rule="evenodd" d="M77.953 60.2309C77.2128 59.7635 75.6317 61.7636 76.3797 62.221C86.0339 68.1247 92.6626 72.4764 104.803 80.5114C105.531 80.9934 107.111 78.997 106.376 78.5224C93.7265 70.3463 89.4498 67.4903 77.953 60.2309Z" fill="#FFD42A"/>
<path opacity="0.936073" fill-rule="evenodd" clip-rule="evenodd" d="M75.9175 12.8306C75.1172 12.8281 75.0843 15.2825 75.8864 15.2729C86.2165 15.1497 93.4759 15.3097 106.808 15.6559C107.608 15.6767 107.641 13.226 106.839 13.2144C93.0573 13.0145 88.3465 12.8716 75.917 12.8306L75.9175 12.8306Z" fill="#FFD42A"/>
<path opacity="0.936073" fill-rule="evenodd" clip-rule="evenodd" d="M62.2261 29.5864C60.7167 29.5831 60.6659 32.0381 62.1755 32.0288C81.659 31.9094 95.3519 32.0721 120.499 32.4235C122.008 32.4446 122.06 29.9938 120.551 29.9819C94.5555 29.7768 85.6698 29.6322 62.2258 29.5864H62.2261Z" fill="#FFD42A"/>
<path opacity="0.936073" fill-rule="evenodd" clip-rule="evenodd" d="M19.3794 296.807C23.1416 289.955 31.5831 287.311 38.6364 284.841C55.8868 278.8 74.6278 278.88 92.7753 278.652C107.327 278.47 122.268 278.328 136.283 282.526C146.431 285.566 159.36 287.824 164.577 297.632C166.916 302.03 166.105 311.159 164.867 316.416C164.316 318.759 161.441 319.141 159.354 317.896C153.264 314.261 143.901 310.052 136.283 307.948C122.173 304.05 107.346 303.471 92.7753 303.409C76.904 303.341 60.7712 303.927 45.3499 307.948C39.4743 309.48 31.6585 312.978 25.9501 315.807C22.0585 317.735 16.892 316.491 16.7966 312.317C16.6764 307.06 17.4606 300.302 19.3794 296.807Z" fill="#BAD8D8"/>
<path opacity="0.936073" d="M31.1374 307.26C34.343 307.26 36.9417 304.746 36.9417 301.644C36.9417 298.542 34.343 296.027 31.1374 296.027C27.9317 296.027 25.333 298.542 25.333 301.644C25.333 304.746 27.9317 307.26 31.1374 307.26Z" fill="#FFD42A"/>
<path opacity="0.936073" d="M52.1799 298.94C55.3855 298.94 57.9842 296.425 57.9842 293.323C57.9842 290.221 55.3855 287.706 52.1799 287.706C48.9742 287.706 46.3755 290.221 46.3755 293.323C46.3755 296.425 48.9742 298.94 52.1799 298.94Z" fill="#FFD42A"/>
<path opacity="0.936073" d="M77.613 296.052C80.8186 296.052 83.4173 293.537 83.4173 290.435C83.4173 287.333 80.8186 284.818 77.613 284.818C74.4073 284.818 71.8086 287.333 71.8086 290.435C71.8086 293.537 74.4073 296.052 77.613 296.052Z" fill="#FFD42A"/>
<path opacity="0.936073" d="M103.662 296.052C106.868 296.052 109.467 293.537 109.467 290.435C109.467 287.333 106.868 284.818 103.662 284.818C100.457 284.818 97.8579 287.333 97.8579 290.435C97.8579 293.537 100.457 296.052 103.662 296.052Z" fill="#FFD42A"/>
<path opacity="0.936073" d="M128.346 298.302C131.551 298.302 134.15 295.788 134.15 292.686C134.15 289.584 131.551 287.069 128.346 287.069C125.14 287.069 122.541 289.584 122.541 292.686C122.541 295.788 125.14 298.302 128.346 298.302Z" fill="#FFD42A"/>
<path opacity="0.936073" d="M151.315 306.51C154.52 306.51 157.119 303.996 157.119 300.894C157.119 297.792 154.52 295.277 151.315 295.277C148.109 295.277 145.51 297.792 145.51 300.894C145.51 303.996 148.109 306.51 151.315 306.51Z" fill="#FFD42A"/>
<path opacity="0.936073" fill-rule="evenodd" clip-rule="evenodd" d="M18.8013 336.786C18.4515 362.761 18.2856 394.779 18.2856 394.779H163.49C163.49 394.779 164.088 374.538 163.699 335.146C163.659 331.081 160.705 326.724 157.092 325.484C143.511 320.82 111.941 310.668 93.4749 310.297C75.2402 309.932 44.5711 318.127 28.8755 322.728C23.3884 324.337 18.8833 330.692 18.8013 336.786Z" fill="#BAD8D8"/>
<path opacity="0.936073" fill-rule="evenodd" clip-rule="evenodd" d="M90.2013 330.398C89.7024 330.272 90.1286 331.978 90.1286 331.978C90.1286 331.978 94.0746 333.23 98.5704 335.318C103.066 337.406 108.088 340.408 110.107 343.467C113.23 348.198 114.646 357.307 115.155 365.162C115.664 373.017 115.345 379.621 115.345 379.621L117.029 379.714C117.029 379.714 117.354 373.015 116.837 365.038C116.32 357.061 115.039 347.809 111.484 342.424C109.033 338.711 103.841 335.797 99.2405 333.661C94.64 331.525 92.4521 330.965 90.2013 330.398Z" fill="#676767"/>
<path opacity="0.936073" fill-rule="evenodd" clip-rule="evenodd" d="M89.9992 330.352C90.4981 330.226 90.6787 331.932 90.6787 331.932C90.6787 331.932 86.4578 333.23 81.9619 335.317C77.466 337.405 72.4445 340.408 70.4255 343.466C67.3021 348.198 65.8868 357.307 65.3776 365.162C64.8684 373.017 65.1868 379.62 65.1868 379.62L63.5029 379.713C63.5029 379.713 63.1786 373.014 63.6956 365.037C64.2127 357.06 65.4933 347.809 69.0485 342.423C71.4993 338.711 76.6914 335.797 81.2918 333.661C85.8923 331.524 87.7484 330.919 89.9992 330.352Z" fill="#676767"/>
<path opacity="0.936073" fill-rule="evenodd" clip-rule="evenodd" d="M90.2214 338.619C89.839 338.522 90.1656 339.83 90.1656 339.83C90.1656 339.83 93.1903 340.79 96.6365 342.39C100.083 343.99 103.932 346.292 105.479 348.636C107.874 352.263 108.958 359.245 109.349 365.266C109.739 371.287 109.495 376.349 109.495 376.349L110.786 376.42C110.786 376.42 111.034 371.285 110.638 365.171C110.242 359.056 109.26 351.965 106.535 347.837C104.656 344.991 100.676 342.757 97.1501 341.12C93.6238 339.482 91.9467 339.053 90.2214 338.619Z" fill="#676767"/>
<path opacity="0.936073" fill-rule="evenodd" clip-rule="evenodd" d="M90.0665 338.585C90.449 338.488 90.5874 339.795 90.5874 339.795C90.5874 339.795 87.3519 340.79 83.9057 342.391C80.4595 343.991 76.6104 346.293 75.0628 348.637C72.6687 352.264 71.5838 359.246 71.1935 365.267C70.8032 371.288 71.0473 376.35 71.0473 376.35L69.7565 376.421C69.7565 376.421 69.5079 371.286 69.9042 365.171C70.3006 359.057 71.2822 351.965 74.0073 347.837C75.8859 344.992 79.8658 342.758 83.3921 341.12C86.9185 339.483 88.3412 339.019 90.0665 338.585Z" fill="#676767"/>
<path opacity="0.936073" fill-rule="evenodd" clip-rule="evenodd" d="M40.119 344.748C39.7986 344.668 40.0723 345.763 40.0723 345.763C40.0723 345.763 42.6065 346.567 45.4939 347.908C48.3812 349.249 51.6061 351.177 52.9028 353.141C54.9087 356.18 55.8176 362.03 56.1446 367.075C56.4717 372.119 56.2671 376.36 56.2671 376.36L57.3486 376.42C57.3486 376.42 57.5569 372.118 57.2248 366.995C56.8927 361.872 56.0704 355.93 53.7871 352.471C52.2132 350.087 48.8787 348.216 45.9242 346.844C42.9696 345.472 41.5645 345.112 40.119 344.748Z" fill="#676767"/>
<path opacity="0.936073" fill-rule="evenodd" clip-rule="evenodd" d="M39.9894 344.72C40.3098 344.639 40.4258 345.734 40.4258 345.734C40.4258 345.734 37.715 346.568 34.8276 347.909C31.9403 349.25 28.7153 351.178 27.4187 353.142C25.4128 356.181 24.5039 362.031 24.1768 367.075C23.8498 372.12 24.0543 376.361 24.0543 376.361L22.9728 376.421C22.9728 376.421 22.7646 372.118 23.0966 366.996C23.4287 361.873 24.2511 355.931 26.5344 352.472C28.1083 350.088 31.4428 348.217 34.3973 346.845C37.3518 345.473 38.5439 345.084 39.9894 344.72Z" fill="#676767"/>
<path opacity="0.936073" fill-rule="evenodd" clip-rule="evenodd" d="M40.1325 350.029C39.8869 349.967 40.0967 350.807 40.0967 350.807C40.0967 350.807 42.0392 351.423 44.2524 352.451C46.4656 353.479 48.9376 354.957 49.9315 356.463C51.4691 358.792 52.1658 363.276 52.4165 367.143C52.6672 371.01 52.5104 374.26 52.5104 374.26L53.3394 374.306C53.3394 374.306 53.499 371.008 53.2445 367.081C52.9899 363.155 52.3596 358.6 50.6094 355.949C49.4029 354.121 46.847 352.687 44.5823 351.635C42.3176 350.584 41.2405 350.308 40.1325 350.029Z" fill="#676767"/>
<path opacity="0.936073" fill-rule="evenodd" clip-rule="evenodd" d="M40.0327 350.006C40.2783 349.944 40.3672 350.784 40.3672 350.784C40.3672 350.784 38.2893 351.423 36.0761 352.45C33.8628 353.478 31.3909 354.956 30.397 356.462C28.8594 358.791 28.1627 363.275 27.912 367.142C27.6613 371.009 27.8181 374.26 27.8181 374.26L26.9891 374.306C26.9891 374.306 26.8295 371.008 27.084 367.081C27.3386 363.154 27.9689 358.6 29.7191 355.948C30.9256 354.121 33.4815 352.686 35.7462 351.635C38.0109 350.583 38.9247 350.285 40.0327 350.006Z" fill="#676767"/>
<path opacity="0.936073" fill-rule="evenodd" clip-rule="evenodd" d="M139.388 344.748C139.068 344.668 139.341 345.763 139.341 345.763C139.341 345.763 141.876 346.567 144.763 347.908C147.65 349.249 150.875 351.177 152.172 353.141C154.178 356.18 155.087 362.03 155.414 367.075C155.741 372.119 155.536 376.36 155.536 376.36L156.618 376.42C156.618 376.42 156.826 372.118 156.494 366.995C156.162 361.872 155.339 355.93 153.056 352.471C151.482 350.087 148.148 348.216 145.193 346.844C142.239 345.472 140.834 345.112 139.388 344.748Z" fill="#676767"/>
<path opacity="0.936073" fill-rule="evenodd" clip-rule="evenodd" d="M139.258 344.72C139.578 344.639 139.694 345.734 139.694 345.734C139.694 345.734 136.984 346.568 134.096 347.909C131.209 349.25 127.984 351.178 126.687 353.142C124.681 356.181 123.772 362.031 123.445 367.075C123.118 372.12 123.323 376.361 123.323 376.361L122.241 376.421C122.241 376.421 122.033 372.118 122.365 366.996C122.697 361.873 123.52 355.931 125.803 352.472C127.377 350.088 130.711 348.217 133.666 346.845C136.62 345.473 137.812 345.084 139.258 344.72Z" fill="#676767"/>
<path opacity="0.936073" fill-rule="evenodd" clip-rule="evenodd" d="M139.401 350.029C139.156 349.967 139.365 350.807 139.365 350.807C139.365 350.807 141.308 351.423 143.521 352.451C145.734 353.479 148.206 354.957 149.2 356.463C150.738 358.792 151.435 363.276 151.685 367.143C151.936 371.01 151.779 374.26 151.779 374.26L152.608 374.306C152.608 374.306 152.768 371.008 152.513 367.081C152.259 363.155 151.628 358.6 149.878 355.949C148.672 354.121 146.116 352.687 143.851 351.635C141.586 350.584 140.509 350.308 139.401 350.029Z" fill="#676767"/>
<path opacity="0.936073" fill-rule="evenodd" clip-rule="evenodd" d="M139.301 350.006C139.547 349.944 139.636 350.784 139.636 350.784C139.636 350.784 137.558 351.423 135.345 352.45C133.132 353.478 130.66 354.956 129.666 356.462C128.128 358.791 127.431 363.275 127.181 367.142C126.93 371.009 127.087 374.26 127.087 374.26L126.258 374.306C126.258 374.306 126.098 371.008 126.353 367.081C126.607 363.154 127.238 358.6 128.988 355.948C130.194 354.121 132.75 352.686 135.015 351.635C137.28 350.583 138.193 350.285 139.301 350.006Z" fill="#676767"/>
</svg>
